<?xml version="1.0" encoding="UTF-8" standalone="no"?>
<!-- Generator: Adobe Illustrator 16.0.1, SVG Export Plug-In . SVG Version: 6.00 Build 0)  -->

<svg
   xmlns:dc="http://purl.org/dc/elements/1.1/"
   xmlns:cc="http://creativecommons.org/ns#"
   xmlns:rdf="http://www.w3.org/1999/02/22-rdf-syntax-ns#"
   xmlns:svg="http://www.w3.org/2000/svg"
   xmlns="http://www.w3.org/2000/svg"
   xmlns:sodipodi="http://sodipodi.sourceforge.net/DTD/sodipodi-0.dtd"
   xmlns:inkscape="http://www.inkscape.org/namespaces/inkscape"
   version="1.1"
   id="Layer_1"
   x="0px"
   y="0px"
   width="670.9px"
   height="158px"
   viewBox="0 0 670.9 158"
   enable-background="new 0 0 670.9 158"
   xml:space="preserve"
   inkscape:version="0.91 r13725"
   sodipodi:docname="radaronline-logo.svg"><metadata
     id="metadata27"><rdf:RDF><cc:Work
         rdf:about=""><dc:format>image/svg+xml</dc:format><dc:type
           rdf:resource="http://purl.org/dc/dcmitype/StillImage" /></cc:Work></rdf:RDF></metadata><defs
     id="defs25" /><sodipodi:namedview
     pagecolor="#ffffff"
     bordercolor="#666666"
     borderopacity="1"
     objecttolerance="10"
     gridtolerance="10"
     guidetolerance="10"
     inkscape:pageopacity="0"
     inkscape:pageshadow="2"
     inkscape:window-width="676"
     inkscape:window-height="480"
     id="namedview23"
     showgrid="false"
     inkscape:zoom="0.51125352"
     inkscape:cx="335.45001"
     inkscape:cy="79"
     inkscape:window-x="584"
     inkscape:window-y="59"
     inkscape:window-maximized="0"
     inkscape:current-layer="g3" /><g
     id="g3"><path
       d="M650.936,152.799l-28.827-49.012C638.303,93.688,647,77.116,647,56.297v-0.432c0-15.756-4.205-27.179-12.887-37.164   C623.574,6.581,606.769,1,584.483,1h-64.062H518v1.871V125.84L472.204,1.371L471.196,0h-2.101h-43.457h-2.101l-0.719,1.371   l-28.173,78.012c0.008-0.559,0.354-1.412,0.354-1.975v-0.43c0-23.287-7.379-42.053-20.732-55.338   C360.125,7.569,339.383,1,313.247,1h-50.2H261v1.871V125.84L215.017,1.371L213.821,0h-2.1h-43.457h-2.101l-0.719,1.371   l-46.42,127.281l-14.29-25.048C120.928,93.506,130,77.116,130,56.297v-0.432c0-15.756-4.58-27.179-13.262-37.164   C106.199,6.581,89.02,1,66.734,1H2.672H0v1.871v150.797V158h2.672h43.832H50v-4.332V102l28.199,53.751L78.8,158h1.796h28.125h4.284   h17.604h5.279h23.946h2.163l0.684-2.427L168.74,137h41.586l6.236,18.597l0.695,2.403h2.144h40.646h3h3.932h4.285h40.485   c26.086,0,47.464-8.378,61.822-22.97c0.36-0.366,0.7-1.087,1.051-1.462l-7.062,19.908L366.096,158h4.284h46.829h2.163l0.684-2.427   l6.06-18.573h41.586l6.236,18.597l0.694,2.403h2.145h40.646h3h3.932h4.285h35.615H568v-4.332V102l28.074,53.751L596.55,158h1.796   h50.013h5.278L650.936,152.799z M568,44h15.359C591.507,44,597,47.789,597,56.051v3.908C597,67.688,591.804,73,583.173,73H568V44z    M455.292,96h-16.6l8.3-39.883L455.292,96z M345,78.055v0.43C345,97.222,334.068,108,314.184,108H311V51h3.184   C334.068,51,345,59.318,345,78.055 M200,96h-21l10.617-39.883L200,96z M50,44h15.611C73.98,44,80,48.032,80,56.051v3   C80,66.913,74.037,73,65.424,73H50V44z"
       id="path5"
       style="fill:#ffffff;fill-opacity:1" /><rect
       x="433.521"
       y="41.615"
       transform="matrix(0.9944 -0.1053 0.1053 0.9944 -4.0754 56.0531)"
       fill="#FF0072"
       width="190.362"
       height="50"
       id="rect7" /><path
       fill="#FFFFFF"
       d="M442.827,75.553l-0.01-0.084c-0.906-8.559,5.256-16.229,14.452-17.201   c9.197-0.975,16.736,5.156,17.643,13.715l0.009,0.086c0.906,8.558-5.256,16.228-14.452,17.203   C451.271,90.246,443.732,84.112,442.827,75.553 M466.457,73.051l-0.009-0.084c-0.46-4.344-3.918-7.723-8.474-7.24   c-4.556,0.482-7.191,4.465-6.735,8.763l0.009,0.086c0.455,4.301,3.961,7.719,8.517,7.237   C464.278,81.334,466.913,77.352,466.457,73.051"
       id="path9" /><polygon
       fill="#FFFFFF"
       points="478.671,56.602 486.378,55.786 500.31,70.241 498.641,54.487 506.815,53.622 509.973,83.426    502.775,84.188 488.271,69.191 490.004,85.541 481.828,86.407  "
       id="polygon11" /><polygon
       fill="#FFFFFF"
       points="513.164,52.947 521.425,52.072 523.815,74.641 538.249,73.111 539.016,80.35 516.321,82.754  "
       id="polygon13" /><rect
       x="541.846"
       y="49.553"
       transform="matrix(-0.9944 0.1053 -0.1053 -0.9944 1095.76 71.2027)"
       fill="#FFFFFF"
       width="8.306"
       height="29.974"
       id="rect15" /><polygon
       fill="#FFFFFF"
       points="555.068,48.51 562.774,47.694 576.706,62.149 575.037,46.395 583.213,45.53 586.369,75.334    579.174,76.096 564.668,61.1 566.4,77.449 558.226,78.315  "
       id="polygon17" /><polygon
       fill="#FFFFFF"
       points="589.562,44.855 613.532,42.316 614.272,49.301 598.477,50.973 598.959,55.529 613.265,54.014    613.955,60.529 599.649,62.042 600.149,66.77 616.159,65.075 616.903,72.1 592.719,74.663  "
       id="polygon19" /><path
       d="M669.483,149.656c0.899,0.912,1.417,2.137,1.417,3.444c0,1.348-0.504,2.545-1.43,3.443   c-0.967,0.939-2.205,1.457-3.484,1.457c-1.307,0-2.519-0.517-3.456-1.47c-0.927-0.939-1.431-2.138-1.431-3.43   c0-1.292,0.532-2.545,1.484-3.512c0.898-0.912,2.083-1.388,3.402-1.388C667.32,148.2,668.545,148.703,669.483,149.656    M669.035,150.104c-0.815-0.829-1.864-1.265-3.035-1.265c-1.143,0-2.191,0.423-2.967,1.211c-0.83,0.845-1.293,1.933-1.293,3.049   c0,1.116,0.448,2.164,1.252,2.981c0.803,0.816,1.879,1.266,2.967,1.266c1.156,0,2.205-0.436,3.049-1.252   c0.804-0.777,1.238-1.825,1.238-2.954C670.246,151.958,669.824,150.896,669.035,150.104 M668.437,151.753   c0,0.79-0.463,1.333-1.266,1.496l1.238,2.532h-1.171l-1.129-2.368h-1.034v2.368h-1.048v-5.553h2.096   C667.675,150.228,668.437,150.745,668.437,151.753 M665.075,150.908v1.837h0.884c0.952,0,1.402-0.231,1.402-0.884   c0-0.68-0.45-0.953-1.43-0.953H665.075z"
       id="path21" /></g></svg>